<svg width="25" height="24" viewBox="0 0 25 24" fill="none" xmlns="http://www.w3.org/2000/svg">
<path d="M12.5 0.881836C9.186 0.884609 6.00885 1.81954 3.66549 3.48153C1.32214 5.14353 0.00392292 7.39688 1.32987e-05 9.74729C-0.00395589 11.6681 0.880672 13.5367 2.51819 15.0666C2.51819 15.0666 2.8591 15.3849 2.91478 15.4309L12.5 23.4485L22.0898 15.4268C22.1398 15.3841 22.4818 15.0666 22.4818 15.0666L22.4829 15.0642C24.1197 13.5349 25.0039 11.6672 25 9.74729C24.9961 7.39688 23.6779 5.14353 21.3345 3.48153C18.9912 1.81954 15.814 0.884609 12.5 0.881836ZM12.5 12.9711C11.601 12.9711 10.7222 12.782 9.97468 12.4278C9.22719 12.0736 8.64459 11.5701 8.30055 10.981C7.95652 10.3919 7.8665 9.74372 8.04189 9.11836C8.21728 8.493 8.65019 7.91858 9.28588 7.46772C9.92157 7.01686 10.7315 6.70983 11.6132 6.58543C12.495 6.46104 13.4089 6.52489 14.2395 6.76889C15.07 7.01289 15.7799 7.42609 16.2794 7.95624C16.7789 8.4864 17.0455 9.10969 17.0455 9.74729C17.0439 10.602 16.5646 11.4213 15.7125 12.0257C14.8603 12.63 13.7051 12.97 12.5 12.9711Z" fill="#4E4FEB"/>
</svg>
