<svg width="528" height="33" viewBox="0 0 528 33" fill="none" xmlns="http://www.w3.org/2000/svg">
<path d="M36.0236 9.35449C35.1639 9.38838 34.3118 9.43116 33.4521 9.45256C32.9961 9.46326 32.8318 9.53995 32.6449 9.61128C32.4954 9.66835 32.3234 9.68618 32.0468 9.69687C29.7145 9.78426 27.3895 9.87699 25.0647 9.96794C24.7731 9.94476 24.6311 9.90732 24.6984 9.86273C24.7357 9.83598 24.8255 9.79853 24.9152 9.79497C26.5075 9.72898 28.0922 9.66121 29.6919 9.60949C30.1479 9.59523 30.2751 9.51676 30.5068 9.45256C30.5816 9.43116 30.6414 9.39906 30.7386 9.38658C30.8358 9.37231 30.9778 9.3741 31.1049 9.37054C33.6765 9.26889 36.2481 9.16903 38.8196 9.06738C39.1112 9.09057 39.2532 9.12801 39.1859 9.17259C39.1485 9.19934 39.0588 9.23679 38.9691 9.24036C37.9823 9.27781 37.0029 9.31526 36.0236 9.35449Z" fill="#FFE492"/>
<path d="M506.722 18.8508C506.334 18.8722 505.84 18.9025 505.437 18.7991C505.242 18.7491 505.033 18.7331 504.779 18.7438C504.412 18.7616 504.039 18.7759 503.665 18.7866C503.568 18.7884 503.441 18.7688 503.344 18.7527C503.134 18.7206 502.955 18.6671 502.731 18.6529C502.506 18.6386 502.237 18.6778 502.005 18.6689C501.699 18.6564 501.572 18.6083 501.654 18.5637C501.699 18.5387 501.789 18.5031 501.886 18.4977C503.269 18.4317 503.276 18.4317 503.665 18.4959C503.964 18.5459 504.241 18.6011 504.667 18.5708C505.026 18.5458 505.407 18.5405 505.773 18.5244C506.281 18.503 506.281 18.5048 507.104 18.6172C507.313 18.6457 507.537 18.6439 507.806 18.6279C508.038 18.6154 508.262 18.6439 508.449 18.6921C508.33 18.7527 508.158 18.792 507.926 18.8027C507.552 18.8205 507.186 18.833 506.722 18.8508Z" fill="#FFE492"/>
<path d="M492.961 18.3013C493.903 18.2638 494.852 18.2317 495.794 18.1889C496.183 18.1711 496.489 18.1907 496.758 18.2514C497.05 18.3173 497.379 18.312 497.738 18.2995C497.962 18.2924 498.179 18.3209 498.328 18.3708C498.388 18.3904 498.373 18.4261 498.395 18.4547C497.573 18.4868 496.743 18.5206 495.914 18.5491C495.816 18.5527 495.697 18.5349 495.607 18.5206C495.405 18.4903 495.233 18.4368 495.016 18.4261C494.553 18.4011 494.09 18.4493 493.619 18.4582C493.394 18.4618 493.178 18.435 493.028 18.3869C492.968 18.3637 492.983 18.3298 492.961 18.3013Z" fill="#FFE492"/>
<path d="M152.569 2.96868C153.548 2.92945 154.527 2.89202 155.507 2.85278C155.798 2.87775 155.933 2.91341 155.873 2.95799C155.836 2.98474 155.746 3.02219 155.656 3.02576C153.698 3.10601 151.739 3.18268 149.788 3.25936C149.496 3.2344 149.362 3.19873 149.422 3.15415C149.459 3.1274 149.549 3.08995 149.638 3.08639C150.61 3.04537 151.59 3.00791 152.569 2.96868Z" fill="#FFE492"/>
<path d="M1.66734 12.8783C1.22629 12.8818 0.762902 12.9478 0.269521 12.8979C0.17234 12.8889 0.0377448 12.8604 0.0452202 12.8444C0.0601712 12.8176 0.149891 12.7837 0.247073 12.773C0.673174 12.7284 1.20398 12.7231 1.42077 12.5983C1.52543 12.5341 1.71979 12.5127 1.98143 12.5002C2.25803 12.4859 2.45233 12.4913 2.66912 12.5287C2.95319 12.5769 3.19244 12.666 3.64097 12.6197C3.66339 12.6482 3.71559 12.6803 3.69316 12.707C3.67074 12.7338 3.57372 12.7588 3.48401 12.7784C3.40178 12.7962 3.28954 12.8123 3.18488 12.8176C2.6915 12.839 2.1981 12.8569 1.66734 12.8783Z" fill="#FFE492"/>
<path d="M390.45 12.5198C390.817 12.5055 391.198 12.4984 391.557 12.4734C391.841 12.4538 392.02 12.4663 392.244 12.5091C392.626 12.584 392.648 12.5768 393.583 12.5875C393.687 12.5893 393.814 12.6161 393.874 12.6392C393.912 12.6517 393.859 12.6856 393.814 12.7035C393.747 12.7266 393.65 12.7569 393.56 12.7569C392.97 12.7623 392.372 12.8675 391.796 12.7463C391.504 12.6856 391.183 12.6571 390.787 12.6838C390.548 12.6999 390.293 12.707 390.047 12.7141C389.807 12.7213 389.561 12.7017 389.411 12.6482C389.195 12.5697 389.322 12.5394 389.71 12.5447C389.957 12.5483 390.204 12.5287 390.45 12.5198Z" fill="#FFE492"/>
<path d="M525.936 24.8127C526.407 24.7949 526.878 24.7735 527.357 24.7592C527.454 24.7556 527.574 24.7753 527.663 24.7878C528.022 24.8413 527.97 24.9322 527.985 25.0124C527.992 25.0962 527.162 25.164 526.811 25.107C526.422 25.0428 526.071 24.9697 525.533 25.0089C525.323 25.0231 525.077 24.991 524.942 24.9393C524.74 24.8644 524.852 24.8341 525.234 24.8395C525.458 24.843 525.697 24.8234 525.936 24.8127Z" fill="#FFE492"/>
<path d="M288.605 0.539778C289.091 0.520161 289.577 0.48986 290.063 0.488077C290.347 0.486293 290.489 0.545131 290.421 0.587931C290.384 0.61468 290.294 0.652131 290.204 0.655697C289.233 0.698497 288.261 0.734169 287.289 0.773402C287.005 0.748436 286.863 0.710992 286.93 0.668193C286.968 0.641443 287.057 0.605776 287.147 0.600426C287.633 0.57546 288.119 0.559394 288.605 0.539778Z" fill="#FFE492"/>
<path d="M516.614 19.0076C517.085 18.9897 517.564 18.963 518.035 18.9541C518.281 18.9505 518.476 18.9915 518.506 19.0379C518.521 19.0593 518.401 19.0967 518.304 19.1057C517.631 19.1663 516.906 19.1734 516.203 19.2037C515.979 19.2127 515.74 19.1841 515.605 19.1342C515.403 19.0575 515.516 19.029 515.897 19.0343C516.136 19.0361 516.375 19.0165 516.614 19.0076Z" fill="#FFE492"/>
<path d="M402.803 12.7607C403.043 12.7518 403.289 12.7286 403.521 12.7357C403.768 12.7446 403.925 12.7964 404 12.8481C404.082 12.9069 404.074 12.9622 404 13.0121C403.88 13.0977 403.76 13.0942 403.484 13.0371C403.058 12.9479 403.028 12.9586 402.183 12.9622C402.086 12.9622 401.966 12.9354 401.891 12.9123C401.779 12.8766 401.839 12.8213 402.101 12.7892C402.295 12.766 402.564 12.7696 402.803 12.7607Z" fill="#FFE492"/>
<path d="M499.098 18.4225C499.449 18.4082 499.801 18.3851 500.152 18.3851C500.399 18.3833 500.593 18.4243 500.615 18.4689C500.623 18.4903 500.511 18.5259 500.421 18.5366C499.995 18.5848 499.517 18.5884 499.053 18.6044C498.836 18.6115 498.597 18.583 498.462 18.5331C498.261 18.4582 498.38 18.4243 498.747 18.435C498.859 18.4385 498.978 18.4279 499.098 18.4225Z" fill="#FFE492"/>
<path d="M443.804 16.2348C443.28 16.2562 442.787 16.2295 442.824 16.1831C442.877 16.1225 443.093 16.0832 443.318 16.0725C443.676 16.0547 444.035 16.0404 444.401 16.0297C444.633 16.0226 444.843 16.0493 445.029 16.0957C444.917 16.1528 444.745 16.1938 444.521 16.2063C444.289 16.2187 444.043 16.2259 443.804 16.2348Z" fill="#FFE492"/>
<path d="M440.377 16.0065C440.728 15.9922 441.079 15.9691 441.43 15.9691C441.677 15.9673 441.872 16.0083 441.894 16.0529C441.902 16.0743 441.789 16.1099 441.7 16.1206C441.274 16.1688 440.795 16.1723 440.332 16.1884C440.115 16.1955 439.876 16.167 439.741 16.1171C439.539 16.0422 439.659 16.0083 440.025 16.019C440.137 16.0226 440.257 16.0118 440.377 16.0065Z" fill="#FFE492"/>
<path d="M398.565 12.7466C398.917 12.7323 399.268 12.7091 399.619 12.7073C399.866 12.7055 400.06 12.7466 400.083 12.7912C400.09 12.8126 399.978 12.8464 399.888 12.8589C399.462 12.9071 398.984 12.9106 398.52 12.9267C398.304 12.9338 398.064 12.9053 397.93 12.8554C397.728 12.7805 397.847 12.7466 398.214 12.7573C398.326 12.7608 398.446 12.7501 398.565 12.7466Z" fill="#FFE492"/>
<path d="M396.595 12.6413C396.968 12.6271 397.088 12.6182 397.208 12.6182C397.432 12.6182 397.664 12.6396 397.798 12.6913C398 12.7662 397.88 12.7876 397.514 12.7912C397.043 12.7947 396.58 12.8322 396.109 12.8393C395.862 12.8429 395.668 12.8001 395.653 12.7555C395.645 12.7341 395.757 12.6966 395.847 12.6895C396.161 12.6628 396.505 12.6467 396.595 12.6413Z" fill="#FFE492"/>
<path d="M437.33 2.1504C437.091 2.15931 436.837 2.18428 436.613 2.17537C436.314 2.16288 436.194 2.11474 436.269 2.07016C436.314 2.04519 436.396 2.00953 436.486 2.00418C436.964 1.97921 437.45 1.96315 437.928 1.94531C438.212 1.97206 438.339 2.00951 438.265 2.05409C438.22 2.07906 438.138 2.11294 438.048 2.12007C437.816 2.13791 437.569 2.14148 437.33 2.1504Z" fill="#FFE492"/>
<path d="M147.207 3.17881C147.439 3.17702 147.648 3.20021 147.827 3.24479C147.715 3.30185 147.551 3.3393 147.326 3.35535C147.214 3.36249 147.087 3.36783 146.968 3.36961C146.736 3.37318 146.527 3.34821 146.347 3.30363C146.459 3.24656 146.631 3.20912 146.848 3.19307C146.96 3.18593 147.087 3.18416 147.207 3.17881Z" fill="#FFE492"/>
<path d="M514.06 19.0007C514.053 18.9489 514.509 18.8901 514.92 18.8919C515.137 18.8937 515.361 18.9186 515.488 18.9668C515.682 19.0399 515.57 19.0684 515.204 19.0631C514.979 19.0595 514.74 19.0898 514.516 19.0845C514.262 19.0827 514.112 19.0435 514.06 19.0007Z" fill="#FFE492"/>
<path d="M404.97 12.9763C404.963 12.9567 404.926 12.9335 404.948 12.9157C405.09 12.8176 405.95 12.7873 406.174 12.8729C406.211 12.889 406.226 12.9157 406.197 12.9318C406.152 12.9567 406.069 12.9888 405.98 12.996C405.748 13.0138 405.509 13.0227 405.27 13.0245C405.165 13.0245 405.068 12.9942 404.97 12.9763Z" fill="#FFE492"/>
<path d="M4.32608 12.5933C3.44397 12.6307 3.42903 12.6271 3.58601 12.538C3.72805 12.4577 3.98972 12.4096 4.37097 12.4096C4.4831 12.4096 4.60267 12.406 4.69985 12.4132C4.80451 12.4221 4.9541 12.4399 4.97653 12.4613C5.02138 12.5023 4.89418 12.5469 4.66992 12.5772C4.57274 12.5915 4.44568 12.5879 4.32608 12.5933Z" fill="#FFE492"/>
<path d="M158.251 2.92756C157.99 2.95788 157.765 2.94719 157.601 2.89012C157.436 2.83305 157.698 2.76528 158.154 2.74923C158.274 2.74567 158.401 2.73141 158.513 2.73854C158.625 2.74389 158.737 2.76527 158.805 2.78667C158.924 2.82234 158.849 2.8705 158.61 2.91152C158.513 2.92757 158.371 2.924 158.251 2.92756Z" fill="#FFE492"/>
<path d="M512.503 18.8668C512.571 18.8437 512.638 18.8205 512.713 18.7991C512.989 18.8294 513.109 18.8651 513.034 18.9061C512.989 18.931 512.9 18.9524 512.832 18.9756C512.556 18.9453 512.444 18.9079 512.503 18.8668Z" fill="#FFE492"/>
<path d="M16.1719 32.8942C16.1719 32.8728 16.2765 32.8389 16.3588 32.8318C16.5157 32.8193 16.71 32.8443 16.8446 32.8942C17.0315 32.9655 16.9195 33.003 16.5756 32.9834C16.3364 32.9691 16.1719 32.9334 16.1719 32.8942Z" fill="#FFE492"/>
<path d="M408.011 11.3161C408.108 11.3321 408.206 11.3482 408.295 11.366C408.168 11.432 408.011 11.4605 407.847 11.4427C407.742 11.432 407.652 11.4106 407.555 11.3945C407.682 11.3286 407.832 11.3036 408.011 11.3161Z" fill="#FFE492"/>
<path d="M405.425 11.2361C405.575 11.2094 405.754 11.2236 405.963 11.2754C405.896 11.2985 405.836 11.3253 405.754 11.3431C405.612 11.3717 405.425 11.3574 405.223 11.3039C405.283 11.2825 405.35 11.2593 405.425 11.2361Z" fill="#FFE492"/>
<path d="M403.445 11.3143C403.542 11.3303 403.64 11.3464 403.729 11.3642C403.602 11.4302 403.453 11.4587 403.281 11.4409C403.176 11.4302 403.086 11.4088 402.989 11.3927C403.116 11.3268 403.266 11.3 403.445 11.3143Z" fill="#FFE492"/>
<path d="M401.986 11.2201C402.098 11.2558 402.038 11.2986 401.822 11.3467C401.724 11.3307 401.612 11.3182 401.538 11.2968C401.418 11.2629 401.478 11.2183 401.702 11.1702C401.792 11.188 401.889 11.2041 401.986 11.2201Z" fill="#FFE492"/>
</svg>
