<svg width="606" height="361" viewBox="0 0 606 361" fill="none" xmlns="http://www.w3.org/2000/svg">
<path d="M382.45 184.395C381.774 187.28 380.965 190.136 380.02 192.962C379.918 193.29 379.803 193.614 379.689 193.942H366.552C365.433 193.943 364.36 194.304 363.569 194.947C362.778 195.59 362.333 196.461 362.331 197.371V227.799C361.933 228.402 361.53 228.999 361.126 229.597C359.04 232.683 356.869 235.735 354.65 238.747C318.473 287.709 268.016 328.681 207.733 358.047L211.302 351.502C209.994 351.429 208.679 351.355 207.371 351.282C178.885 349.7 150.302 347.946 122.484 342.744C93.383 337.302 64.9148 327.863 42.1075 312.213C19.294 296.558 2.57005 274.201 0.248867 250.013C-0.525122 241.7 0.50964 233.342 3.3057 225.321C8.65309 209.881 20.3373 195.989 37.194 187.77C63.6728 174.863 98.2123 177.493 126.126 188.23C154.034 198.963 176.751 216.729 198.931 234.187C176.537 202.985 145.357 176.543 107.949 157.028C95.5535 150.581 82.3986 144.84 71.8601 136.489C61.3275 128.142 53.5562 116.44 55.4193 104.581C57.5353 91.1299 71.0944 80.9218 84.6774 73.0501C90.1033 69.9053 95.7042 66.9222 101.48 64.1791C117.776 56.4201 135.404 50.5666 154.022 48.3966C179.24 45.4527 206.479 49.92 225.813 63.4003C247.596 78.5901 256.53 103.087 255.681 126.521C269.101 110.67 289.798 98.5363 313.172 98.0219C337.438 97.4929 360.505 109.949 372.659 127.025C384.807 144.096 386.989 165.022 382.45 184.395Z" fill="#4F9CF9" fill-opacity="0.44"/>
<path d="M227.476 250.218C241.599 249.201 254.645 248.013 268.331 244.846C281.596 241.777 294.361 236.639 303.804 228.25C313.961 219.227 319.444 207.509 323.313 195.844C325.469 189.34 327.242 182.745 328.914 176.148C330.728 168.99 332.34 161.801 333.75 154.58C336.557 140.206 338.56 125.748 339.761 111.205C339.906 109.44 340.039 107.674 340.16 105.907C340.235 104.818 338.161 104.821 338.087 105.907C337.1 120.242 335.326 134.522 332.764 148.745C330.236 162.72 327.001 176.634 322.896 190.358C319.419 201.984 314.917 213.792 305.999 223.47C297.636 232.546 285.557 238.477 272.515 242.023C259.244 245.632 245.252 247.072 231.384 248.144C229.682 248.275 229.179 248.4 227.476 248.523C226.158 248.618 226.146 250.313 227.476 250.218L227.476 250.218Z" fill="white"/>
<path d="M4.48813 226.564C22.3067 227.372 39.9439 229.913 57.027 234.133C74.1174 238.345 90.5408 244.19 105.957 251.547C120.853 258.661 134.681 267.174 147.161 276.913C159.273 286.369 170.067 296.893 179.347 308.291C188.669 319.718 196.395 331.964 202.379 344.798C203.109 346.369 203.812 347.948 204.488 349.535C204.925 350.558 206.928 350.118 206.487 349.085C200.888 335.979 193.508 323.428 184.484 311.669C175.462 299.909 164.873 289.002 152.912 279.149C140.76 269.144 127.235 260.319 112.607 252.85C81.8919 237.207 47.0766 227.743 11.0201 225.237C8.84506 225.088 6.66776 224.965 4.48815 224.869C3.15522 224.809 3.15932 226.504 4.48815 226.564L4.48813 226.564Z" fill="white"/>
<path d="M101.404 66.1648C112.797 69.1274 123.596 73.442 133.455 78.9706C143.53 84.6585 152.718 91.3301 160.816 98.8376C169.35 106.735 176.937 115.284 183.472 124.367C190.405 133.958 196.427 143.969 201.487 154.312C206.696 164.932 211.078 175.81 214.605 186.883C218.191 198.086 220.992 209.448 222.994 220.913C224.986 232.255 226.191 243.681 226.605 255.136C227.021 266.088 226.625 277.052 225.419 287.965C224.315 298.147 222.301 308.249 219.39 318.19C216.806 327.168 213.163 335.921 208.514 344.325C207.437 346.232 206.295 348.113 205.086 349.968C204.459 350.93 206.248 351.787 206.876 350.823C212.014 342.796 216.116 334.354 219.117 325.632C222.484 315.924 224.925 306.016 226.417 295.999C228.072 285.131 228.877 274.187 228.829 263.235C228.8 251.729 227.962 240.235 226.321 228.807C224.678 217.237 222.24 205.752 219.018 194.407C215.803 183.042 211.725 171.853 206.808 160.904C202.069 150.304 196.394 140 189.83 130.072C183.577 120.599 176.29 111.606 168.059 103.205C160.241 95.2059 151.316 87.9743 141.462 81.6551C131.96 75.58 121.46 70.6281 110.271 66.9447C107.537 66.0549 104.765 65.2502 101.955 64.5306C100.68 64.2025 100.134 65.8381 101.404 66.1648H101.404Z" fill="white"/>
<path d="M233.275 360.963C326.705 360.963 402.445 358.678 402.445 355.86C402.445 353.042 326.705 350.758 233.275 350.758C139.846 350.758 64.1062 353.042 64.1062 355.86C64.1062 358.678 139.846 360.963 233.275 360.963Z" fill="#CFD1F8"/>
<path d="M254.916 344.829L262.02 346.351L272.582 324.67L262.097 322.423L254.916 344.829Z" fill="#FFB8B8"/>
<path d="M273.994 354.68L251.665 349.896L253.925 342.842L267.627 345.778C269.915 346.268 271.871 347.481 273.065 349.151C274.259 350.82 274.593 352.809 273.994 354.68Z" fill="#2F2E41"/>
<path d="M318.071 348.964L325.302 347.908L323.761 324.604L313.09 326.163L318.071 348.964Z" fill="#FFB8B8"/>
<path d="M340.445 351.361L317.722 354.68L316.154 347.502L330.097 345.465C331.25 345.297 332.432 345.316 333.576 345.521C334.72 345.726 335.804 346.114 336.764 346.661C337.725 347.209 338.545 347.906 339.176 348.712C339.808 349.518 340.239 350.419 340.445 351.361Z" fill="#2F2E41"/>
<path d="M303.835 177.582C305.616 177.937 307.066 179.421 307.936 181.141C308.739 182.947 309.283 184.823 309.556 186.732C310.24 190.286 310.897 194.134 309.482 197.426C307.824 201.284 303.406 203.305 299.574 202.356C295.742 201.406 292.694 197.841 291.653 193.738C290.705 189.592 291.316 185.308 293.405 181.451C294.493 179.425 295.994 177.555 297.988 176.641C298.966 176.157 300.132 175.995 301.251 176.185C302.37 176.376 303.359 176.906 304.02 177.669" fill="#2F2E41"/>
<path d="M313.915 241.938L327.68 342.739L316.311 346.268L295.344 278.674L266.152 340.478L253.708 341.043C253.708 341.043 270.782 244.876 283.435 242.691L313.915 241.938Z" fill="#2F2E41"/>
<path d="M302.353 190.446C310.48 190.446 317.067 185.06 317.067 178.416C317.067 171.771 310.48 166.385 302.353 166.385C294.227 166.385 287.64 171.771 287.64 178.416C287.64 185.06 294.227 190.446 302.353 190.446Z" fill="#FFB8B8"/>
<path d="M298.505 189.353C300.81 188.265 301.056 185.642 300.743 183.481C300.43 181.32 299.906 178.911 301.46 177.144C303.314 175.035 307.04 174.993 310.215 174.924C313.391 174.855 317.258 174.095 318.081 171.586C318.624 169.929 317.461 168.15 315.792 167.109C314.123 166.069 312.034 165.609 310.005 165.172C305.464 164.193 300.776 163.207 296.126 163.745C291.521 164.277 287.358 166.271 284.537 169.294C281.716 172.317 280.464 176.127 281.052 179.899C281.805 184.724 282.896 186.831 282.18 188.959C280.845 192.921 275.092 195.467 274.978 199.576C274.888 202.79 278.36 205.27 281.748 206.902C284.435 208.196 287.335 209.295 290.432 209.598C293.529 209.901 296.863 209.321 299.17 207.604C302.145 205.391 302.881 201.693 302.028 198.479C301.175 195.265 298.986 192.41 296.821 189.638" fill="#2F2E41"/>
<path d="M308.669 195.493L292.768 193.797C292.768 193.797 282.398 203.972 283.09 221.494C283.781 239.017 281.361 244.386 281.361 244.386L314.514 244.876C309.722 239.488 329.767 208.543 308.669 195.493Z" fill="#6C63FF"/>
<path d="M317.21 247.325C316.879 247.327 316.548 247.35 316.221 247.395L295.879 229.69L297.953 224.037L287.929 220.363L281.707 232.799L310.973 251.833C310.816 252.868 311.048 253.919 311.638 254.845C312.229 255.77 313.15 256.527 314.28 257.013C315.409 257.5 316.693 257.695 317.961 257.57C319.229 257.446 320.42 257.009 321.377 256.318C322.333 255.627 323.01 254.713 323.316 253.7C323.623 252.687 323.545 251.621 323.093 250.645C322.64 249.668 321.835 248.828 320.784 248.235C319.734 247.642 318.487 247.325 317.21 247.325Z" fill="#FFB8B8"/>
<path d="M355.352 202.649C355.279 202.913 355.231 203.182 355.209 203.452L329.474 215.591L323.219 212.647L316.551 219.785L329.933 227.583L359.292 208.645C360.489 209.007 361.793 209.063 363.03 208.805C364.267 208.546 365.379 207.986 366.217 207.199C367.055 206.411 367.58 205.434 367.722 204.396C367.865 203.359 367.617 202.31 367.013 201.391C366.409 200.471 365.476 199.724 364.34 199.248C363.204 198.772 361.917 198.59 360.651 198.727C359.385 198.863 358.2 199.312 357.254 200.012C356.307 200.713 355.644 201.633 355.352 202.649Z" fill="#FFB8B8"/>
<path d="M69.6654 343.392C70.0775 343.404 70.4843 343.312 70.8306 343.128C71.177 342.943 71.4461 342.676 71.6016 342.361C71.757 342.047 71.7913 341.7 71.6998 341.369C71.6082 341.038 71.3953 340.738 71.0898 340.51C71.0372 340.344 70.9994 340.226 70.9468 340.06C71.3315 339.232 72.0076 338.518 72.8886 338.009C73.7695 337.499 74.8151 337.218 75.8913 337.201C76.9674 337.185 78.0252 337.433 78.929 337.914C79.8327 338.396 80.5412 339.088 80.9637 339.904C83.4006 344.479 86.5406 349.211 85.0649 354.284C94.9946 336.518 91.2938 314.546 76.1419 299.538C71.9803 297.693 68.5863 294.383 67.668 290.516C69.7234 291.071 72.2621 289.679 70.701 287.914C70.0255 287.24 69.3434 286.572 68.6679 285.898C76.3718 279.011 85.769 289.665 77.3089 298.944C80.1447 301.816 82.6083 304.923 84.6594 308.216C84.1539 304.706 84.6676 301.148 86.1582 297.833C87.672 294.743 90.5461 292.128 93.0728 289.448C96.1447 286.181 102.562 287.627 103.028 291.738C100.167 292.537 99.8337 295.953 103.122 296.394C102.35 304.055 96.3594 311.136 88.0347 314.558C91.2058 321.67 92.4997 329.256 91.8301 336.812C93.2043 327.977 104.682 325.746 112.681 322.176C113.189 321.901 113.784 321.755 114.392 321.754C115 321.753 115.595 321.898 116.104 322.171C116.614 322.444 117.016 322.833 117.261 323.291C117.507 323.749 117.585 324.256 117.487 324.75C116.382 325.13 115.325 325.6 114.333 326.152C113.868 326.415 113.513 326.79 113.316 327.225C113.12 327.661 113.092 328.135 113.237 328.584C113.381 329.033 113.69 329.435 114.122 329.733C114.554 330.032 115.088 330.213 115.65 330.252C111.693 338.542 101.28 344.17 90.519 344.223C89.5277 347.932 88.071 351.545 86.1725 355.006L70.2014 355.131C70.1424 354.985 70.0891 354.835 70.0359 354.689C71.5151 354.754 72.9984 354.669 74.4526 354.437C70.4974 350.655 67.4501 348.733 69.6649 343.392L69.6654 343.392Z" fill="#4E4FEB"/>
<path d="M395.676 348.204C395.381 348.213 395.091 348.147 394.843 348.015C394.596 347.884 394.404 347.693 394.293 347.468C394.182 347.243 394.157 346.996 394.223 346.759C394.288 346.523 394.44 346.309 394.658 346.146C394.696 346.027 394.723 345.942 394.761 345.824C394.486 345.233 394.003 344.723 393.374 344.359C392.744 343.995 391.997 343.794 391.229 343.782C390.46 343.77 389.705 343.948 389.059 344.291C388.413 344.635 387.907 345.13 387.606 345.712C385.865 348.981 383.622 352.361 384.676 355.984C377.583 343.294 380.227 327.6 391.05 316.88C394.022 315.562 396.447 313.198 397.103 310.436C395.634 310.832 393.821 309.838 394.936 308.577C395.419 308.096 395.906 307.618 396.388 307.137C390.886 302.218 384.173 309.828 390.216 316.456C388.191 318.507 386.431 320.726 384.966 323.079C385.327 320.572 384.96 318.03 383.895 315.662C382.814 313.455 380.761 311.587 378.956 309.673C376.762 307.339 372.178 308.372 371.846 311.308C373.889 311.879 374.127 314.319 371.778 314.634C372.329 320.106 376.609 325.164 382.555 327.609C380.29 332.688 379.366 338.107 379.844 343.504C378.862 337.193 370.664 335.6 364.95 333.05C364.587 332.854 364.163 332.749 363.728 332.749C363.294 332.748 362.869 332.852 362.505 333.047C362.141 333.242 361.854 333.52 361.679 333.847C361.503 334.174 361.447 334.536 361.517 334.889C362.307 335.16 363.062 335.496 363.771 335.89C364.103 336.078 364.356 336.346 364.497 336.657C364.637 336.968 364.657 337.307 364.554 337.627C364.45 337.948 364.229 338.235 363.921 338.448C363.612 338.661 363.231 338.79 362.83 338.818C365.656 344.74 373.094 348.76 380.78 348.798C381.488 351.447 382.529 354.028 383.885 356.5L395.293 356.589C395.335 356.485 395.373 356.377 395.411 356.273C394.355 356.32 393.295 356.259 392.256 356.094C395.082 353.392 397.258 352.019 395.676 348.204L395.676 348.204Z" fill="#4E4FEB"/>
<path d="M296.743 210.096L317.006 221.904L326.069 212.614L306.372 199.691C305.524 199.135 304.547 198.726 303.499 198.49C302.452 198.254 301.357 198.195 300.281 198.317C299.204 198.439 298.17 198.739 297.241 199.199C296.311 199.659 295.507 200.27 294.876 200.993C293.647 202.403 293.154 204.154 293.504 205.861C293.854 207.568 295.019 209.091 296.743 210.096Z" fill="#6C63FF"/>
<path d="M292.557 207.573L283.136 226.403L296.271 231.491L307.149 212.856C307.617 212.054 307.88 211.182 307.921 210.295C307.963 209.407 307.783 208.522 307.391 207.693C307 206.864 306.405 206.11 305.645 205.475C304.884 204.841 303.973 204.34 302.967 204.004C301.997 203.679 300.958 203.514 299.91 203.518C298.862 203.522 297.825 203.694 296.858 204.026C295.891 204.357 295.014 204.841 294.276 205.45C293.538 206.059 292.954 206.78 292.557 207.573Z" fill="#6C63FF"/>
<ellipse cx="470.113" cy="312.855" rx="26.7109" ry="21.8673" fill="#D7D7F6"/>
<path d="M586.379 215.782C586.287 215.782 586.229 215.78 586.208 215.779L575.17 215.78V214.443H586.248C586.505 214.451 591.738 214.572 596.56 209.767C603.745 202.604 609.646 184.875 596.952 141.082C579.882 82.1966 594.119 30.1747 601.032 10.5417C601.373 9.57036 601.433 8.54728 601.21 7.55329C600.986 6.55929 600.484 5.62162 599.744 4.81435C599.003 4.00708 598.044 3.35234 596.942 2.90185C595.841 2.45137 594.627 2.21749 593.396 2.21869H428.541C427.288 2.22007 426.052 2.46416 424.935 2.93115C423.818 3.39815 422.851 4.07489 422.112 4.90643C419.184 8.21527 415.165 14.5718 412.65 26.0656L411.048 25.8293C413.617 14.0858 417.767 7.54227 420.796 4.12051C421.686 3.11854 422.851 2.30308 424.197 1.74036C425.543 1.17764 427.031 0.883501 428.541 0.88184H593.396C594.879 0.880667 596.342 1.16277 597.67 1.70586C598.997 2.24894 600.152 3.03814 601.045 4.01108C601.937 4.98403 602.542 6.11408 602.811 7.31194C603.08 8.5098 603.006 9.74266 602.596 10.9131C595.718 30.4443 581.555 82.1963 598.535 140.773C611.408 185.181 605.22 203.295 597.761 210.671C592.842 215.536 587.422 215.782 586.379 215.782Z" fill="#DFDDDD"/>
<path d="M556.474 240.264C556.382 240.264 556.324 240.262 556.304 240.262L545.265 240.262V238.926H556.344C556.601 238.932 561.833 239.055 566.655 234.249C573.841 227.087 579.741 209.357 567.047 165.564C549.977 106.679 564.214 54.6571 571.127 35.0241C571.468 34.0528 571.529 33.0297 571.305 32.0357C571.082 31.0417 570.58 30.104 569.839 29.2968C569.098 28.4895 568.139 27.8348 567.038 27.3843C565.936 26.9338 564.722 26.6999 563.491 26.7011H398.636C397.383 26.7025 396.148 26.9466 395.031 27.4136C393.914 27.8806 392.946 28.5573 392.208 29.3889C389.279 32.6977 385.26 39.0543 382.745 50.548L381.143 50.3117C383.713 38.5683 387.862 32.0247 390.891 28.6029C391.781 27.601 392.946 26.7855 394.292 26.2228C395.638 25.6601 397.126 25.3659 398.636 25.3643H563.491C564.974 25.3631 566.437 25.6452 567.765 26.1883C569.092 26.7314 570.248 27.5206 571.14 28.4935C572.032 29.4665 572.637 30.5965 572.906 31.7944C573.175 32.9922 573.101 34.2251 572.691 35.3955C565.813 54.9267 551.65 106.679 568.63 165.255C581.503 209.663 575.315 227.778 567.857 235.153C562.937 240.018 557.517 240.264 556.474 240.264Z" fill="#BFBFC0"/>
<path d="M526.578 264.747C526.486 264.747 526.428 264.745 526.408 264.744L364.177 264.745C362.615 264.746 361.076 264.433 359.696 263.833C358.315 263.233 357.135 262.364 356.258 261.301C355.381 260.239 354.834 259.017 354.665 257.741C354.495 256.465 354.71 255.174 355.288 253.982C361.174 241.896 369.1 212.901 356.046 154.494C340.631 85.5258 354.431 60.6006 361.08 53.0854C361.97 52.0834 363.134 51.2679 364.479 50.7052C365.824 50.1425 367.312 49.8483 368.821 49.8467H533.592C535.074 49.8455 536.537 50.1276 537.863 50.6707C539.19 51.2138 540.345 52.003 541.237 52.9759C542.129 53.9489 542.733 55.0789 543.002 56.2768C543.271 57.4746 543.197 58.7075 542.787 59.878C535.913 79.4091 521.757 131.161 538.728 189.737C551.595 234.146 545.41 252.26 537.955 259.636C533.038 264.5 527.621 264.747 526.578 264.747ZM368.821 51.1835C367.569 51.1849 366.334 51.429 365.218 51.896C364.101 52.363 363.134 53.0397 362.396 53.8713C355.87 61.2471 342.345 85.7934 357.646 154.252C370.116 210.048 364.068 239.553 356.798 254.479C356.308 255.463 356.124 256.533 356.263 257.591C356.402 258.648 356.859 259.661 357.593 260.538C358.321 261.422 359.302 262.147 360.45 262.647C361.598 263.148 362.877 263.409 364.177 263.408H526.448C526.704 263.418 531.935 263.537 536.754 258.731C543.936 251.569 549.834 233.839 537.146 190.047C520.085 131.161 534.314 79.1396 541.224 59.5065C541.564 58.5352 541.625 57.5121 541.402 56.5181C541.178 55.5241 540.677 54.5865 539.937 53.7792C539.196 52.9719 538.238 52.3172 537.137 51.8667C536.036 51.4162 534.822 51.1823 533.592 51.1835H368.821Z" fill="black"/>
<path d="M506.416 109.692H376.599C374.867 109.692 373.205 109.119 371.98 108.099C370.755 107.078 370.067 105.694 370.067 104.252C370.067 102.809 370.755 101.425 371.98 100.405C373.205 99.3842 374.867 98.811 376.599 98.811H506.416C508.148 98.811 509.81 99.3842 511.035 100.405C512.26 101.425 512.948 102.809 512.948 104.252C512.948 105.694 512.26 107.078 511.035 108.099C509.81 109.119 508.148 109.692 506.416 109.692Z" fill="#4F9CF9" fill-opacity="0.76"/>
<path d="M506.416 132.361H376.599C374.867 132.361 373.205 131.788 371.98 130.768C370.755 129.747 370.067 128.363 370.067 126.92C370.067 125.478 370.755 124.094 371.98 123.073C373.205 122.053 374.867 121.48 376.599 121.48H506.416C508.148 121.48 509.81 122.053 511.035 123.073C512.26 124.094 512.948 125.478 512.948 126.92C512.948 128.363 512.26 129.747 511.035 130.768C509.81 131.788 508.148 132.361 506.416 132.361Z" fill="#DCDBF1"/>
<path d="M506.416 155.029H376.599C374.867 155.029 373.205 154.456 371.98 153.436C370.755 152.416 370.067 151.032 370.067 149.589C370.067 148.146 370.755 146.762 371.98 145.742C373.205 144.722 374.867 144.148 376.599 144.148H506.416C508.148 144.148 509.81 144.722 511.035 145.742C512.26 146.762 512.948 148.146 512.948 149.589C512.948 151.032 512.26 152.416 511.035 153.436C509.81 154.456 508.148 155.029 506.416 155.029Z" fill="#DCDBF1"/>
<path d="M515.327 177.699H386.516C384.798 177.699 383.149 177.126 381.934 176.105C380.718 175.085 380.035 173.701 380.035 172.258C380.035 170.815 380.718 169.432 381.934 168.411C383.149 167.391 384.798 166.818 386.516 166.818H515.327C517.046 166.818 518.695 167.391 519.91 168.411C521.126 169.432 521.808 170.815 521.808 172.258C521.808 173.701 521.126 175.085 519.91 176.105C518.695 177.126 517.046 177.699 515.327 177.699Z" fill="#DCDBF1"/>
<path d="M515.327 200.367H386.516C384.798 200.367 383.149 199.794 381.934 198.774C380.718 197.754 380.035 196.37 380.035 194.927C380.035 193.484 380.718 192.1 381.934 191.08C383.149 190.06 384.798 189.486 386.516 189.486H515.327C517.046 189.486 518.695 190.06 519.91 191.08C521.126 192.1 521.808 193.484 521.808 194.927C521.808 196.37 521.126 197.754 519.91 198.774C518.695 199.794 517.046 200.367 515.327 200.367Z" fill="#DCDBF1"/>
<path d="M437.753 87.0236H376.591C374.861 87.0236 373.201 86.4504 371.978 85.4301C370.754 84.4098 370.067 83.026 370.067 81.5831C370.067 80.1402 370.754 78.7564 371.978 77.7361C373.201 76.7158 374.861 76.1426 376.591 76.1426H437.753C439.483 76.1426 441.142 76.7158 442.366 77.7361C443.589 78.7564 444.276 80.1402 444.276 81.5831C444.276 83.026 443.589 84.4098 442.366 85.4301C441.142 86.4504 439.483 87.0236 437.753 87.0236Z" fill="#4E4FEB"/>
<path d="M430.059 236.809C431.375 232.348 437.559 230.885 442.614 231.049C445.809 231.222 448.977 231.623 452.082 232.248C455.33 232.83 458.547 233.519 461.748 234.249C467.618 235.589 473.427 237.209 479.393 238.257C484.36 239.129 489.758 239.641 494.711 238.437C499.472 237.279 503.512 234.438 504.807 230.51C506.028 226.809 504.352 222.761 499.871 221.07C495.784 219.527 490.622 220.312 488.597 223.8C486.313 227.734 488.595 232.023 492.211 234.87C494.266 236.414 496.517 237.783 498.928 238.953C501.374 240.288 504.098 241.264 506.971 241.837C511.688 242.643 517.307 241.455 519.739 237.848C520.28 237.031 520.605 236.134 520.695 235.213C520.839 233.959 518.392 233.966 518.249 235.213C517.836 238.805 512.581 240.487 508.651 240.093C505.998 239.741 503.465 238.954 501.21 237.781C499.034 236.766 496.972 235.601 495.048 234.301C491.714 231.992 488.59 228.192 490.829 224.59C492.651 221.656 497.403 221.685 500.293 223.577C503.793 225.868 503.169 230.027 500.861 232.748C498.305 235.761 493.672 237.024 489.303 237.16C484.557 237.308 479.85 236.437 475.314 235.405C469.678 234.124 464.097 232.69 458.434 231.484C455.218 230.799 451.978 230.181 448.705 229.701C445.61 229.155 442.431 228.979 439.271 229.178C434.167 229.65 428.957 232.028 427.7 236.288C427.338 237.513 429.696 238.036 430.059 236.809L430.059 236.809Z" fill="black"/>
</svg>
