<svg width="28" height="23" viewBox="0 0 28 23" fill="none" xmlns="http://www.w3.org/2000/svg">
<path d="M26.2448 22.5805C11.3155 22.5968 -0.0157336 13.7112 1.63987e-05 2.24207C1.63987e-05 1.49211 0.784016 0.881836 1.75002 0.881836H6.37001C7.23626 0.881836 7.97301 1.37548 8.10076 2.04C8.40544 3.63357 9.00362 5.18501 9.87701 6.6469L10.0573 6.94796C10.1783 7.15056 10.2044 7.37955 10.1309 7.59544C10.0574 7.81133 9.88903 8.00058 9.65476 8.13054C8.22326 8.92254 7.67726 10.516 8.79201 11.7583C10.1955 13.3224 11.9472 14.6803 13.965 15.7685C15.5698 16.631 17.626 16.2079 18.6463 15.0999C18.8138 14.9178 19.0582 14.7868 19.3372 14.7296C19.6162 14.6724 19.9122 14.6925 20.174 14.7866L20.5608 14.9249C22.4473 15.603 24.4493 16.0668 26.5055 16.3028C27.363 16.4018 28 16.9727 28 17.6454V21.2243C28 21.4025 27.9547 21.579 27.8666 21.7436C27.7786 21.9082 27.6495 22.0578 27.4868 22.1838C27.3241 22.3097 27.131 22.4096 26.9185 22.4776C26.706 22.5457 26.4782 22.5807 26.2483 22.5805H26.2448Z" fill="#4E4FEB"/>
</svg>
