<svg width="28" height="20" viewBox="0 0 28 20" fill="none" xmlns="http://www.w3.org/2000/svg">
<path d="M25.2 5.43856L14 11.1345L2.8 5.43856V3.1602L14 8.8561L25.2 3.1602M25.2 0.881836H2.8C1.246 0.881836 0 1.89571 0 3.1602V16.8304C0 17.4346 0.294999 18.0141 0.820101 18.4414C1.3452 18.8687 2.05739 19.1087 2.8 19.1087H25.2C25.9426 19.1087 26.6548 18.8687 27.1799 18.4414C27.705 18.0141 28 17.4346 28 16.8304V3.1602C28 2.55594 27.705 1.97643 27.1799 1.54915C26.6548 1.12188 25.9426 0.881836 25.2 0.881836Z" fill="#4E4FEB"/>
</svg>
